<svg width="141" height="70" viewBox="0 0 141 70" fill="none" xmlns="http://www.w3.org/2000/svg">
<g clip-path="url(#clip0_494_82)">
<path d="M141 0.5H0V69.2959H141V0.5Z" fill="#110300"/>
<path d="M63.1644 23.5678L59.293 16.627L63.9794 20.0974L66.017 16.627L67.8508 20.0974L70.7034 11.5234L73.1485 20.0974L75.3898 16.627L76.8161 20.0974L81.7063 16.627L77.6311 23.5678H63.1644Z" fill="#110300" stroke="#FDFF89" stroke-width="0.8" stroke-linejoin="round"/>
<path d="M63.3672 25.6094H77.6302M63.3672 27.6508H77.6302" stroke="#92F5A2" stroke-width="0.8" stroke-linecap="round" stroke-linejoin="round"/>
<path d="M32.6778 50.6682C33.4602 50.6682 34.147 50.5551 34.7382 50.3285C35.3294 50.0847 35.7901 49.7099 36.1205 49.2049C36.4682 48.6998 36.6421 48.0466 36.6421 47.2451C36.6421 46.5657 36.4943 45.9994 36.1987 45.5467C35.9205 45.0939 35.538 44.728 35.0511 44.4492C34.5817 44.1532 34.0427 43.909 33.4341 43.7175C32.8256 43.5085 32.1909 43.308 31.5302 43.1166C30.8347 42.9251 30.1479 42.707 29.4698 42.4633C28.8091 42.202 28.2093 41.8709 27.6702 41.4704C27.1312 41.0697 26.6966 40.5645 26.3662 39.9548C26.0532 39.3451 25.8967 38.5873 25.8967 37.6815C25.8967 36.706 26.1401 35.8698 26.627 35.173C27.1139 34.4588 27.7659 33.91 28.5831 33.5268C29.4177 33.1261 30.3392 32.9258 31.3476 32.9258C32.1996 32.9258 32.9733 33.0564 33.6689 33.3177C34.3817 33.579 35.0077 33.9884 35.5467 34.5459C36.0857 35.1033 36.5378 35.8437 36.9029 36.7669L35.9901 36.5317L36.3291 33.1871H37.6332V38.0212H36.2248C35.9987 37.2373 35.6597 36.5666 35.2076 36.0091C34.7556 35.4517 34.2166 35.0249 33.5906 34.7288C32.9821 34.4152 32.304 34.2584 31.5563 34.2584C30.7913 34.2584 30.1392 34.3891 29.6002 34.6504C29.0786 34.8942 28.67 35.2427 28.3744 35.6956C28.0962 36.1485 27.9571 36.6972 27.9571 37.3418C27.9571 37.9515 28.0962 38.4654 28.3744 38.8835C28.6526 39.2841 29.0178 39.6238 29.4698 39.9025C29.9393 40.1638 30.4783 40.3903 31.0868 40.5819C31.6954 40.7735 32.3213 40.9564 32.9647 41.1307C33.6949 41.3223 34.4078 41.5487 35.1033 41.81C35.7988 42.0713 36.4248 42.4025 36.9811 42.803C37.5549 43.2035 38.007 43.7175 38.3373 44.3447C38.6677 44.9542 38.8329 45.7296 38.8329 46.6703C38.8329 47.7853 38.5547 48.7431 37.9983 49.5446C37.4419 50.346 36.7029 50.9556 35.7814 51.3737C34.8599 51.7918 33.8601 52.0008 32.7821 52.0008C31.7563 52.0008 30.7913 51.844 29.8871 51.5305C29.0004 51.1994 28.2179 50.6943 27.5398 50.0149C26.8791 49.3355 26.3749 48.4471 26.0271 47.3496L27.0443 47.7416L26.7052 51.7395H25.2969V45.9909H26.7052C27.0008 46.9663 27.4268 47.8024 27.9832 48.4994C28.5396 49.1963 29.209 49.7361 29.9914 50.1194C30.7913 50.4853 31.6867 50.6682 32.6778 50.6682ZM43.7984 47.3954C43.7984 48.0376 43.8689 48.5823 44.0103 49.0285C44.1623 49.4641 44.3743 49.8124 44.6461 50.0737C44.9285 50.335 45.2545 50.5257 45.6241 50.6453C45.9933 50.7649 46.4065 50.825 46.8629 50.825C47.3084 50.825 47.7106 50.7649 48.0692 50.6453C48.4384 50.5257 48.7591 50.335 49.0309 50.0737C49.3023 49.8014 49.5089 49.4478 49.6499 49.0122C49.8023 48.5659 49.8786 48.0213 49.8786 47.379V41.2384C49.8786 41.1731 49.8349 41.1187 49.7481 41.0751C49.6719 41.0316 49.5631 40.9935 49.4221 40.9608C49.2917 40.9281 49.1393 40.9064 48.9657 40.8955C48.8027 40.8737 48.6397 40.8628 48.4767 40.8628H48.297V40.1442H52.4051V40.8628H52.2258C51.9756 40.8628 51.7474 40.8901 51.5412 40.9445C51.3346 40.9989 51.1716 41.086 51.0522 41.2058C50.9324 41.3147 50.8729 41.4671 50.8729 41.6631V47.379C50.8729 48.174 50.7641 48.8599 50.5469 49.4368C50.3293 50.0137 50.0253 50.4873 49.634 50.8576C49.2534 51.2169 48.808 51.4835 48.297 51.6579C47.7864 51.8212 47.2379 51.9028 46.651 51.9028C46.0206 51.9028 45.4391 51.8159 44.9069 51.6415C44.3743 51.4672 43.9068 51.2006 43.505 50.8413C43.1138 50.482 42.8094 50.0194 42.5922 49.4531C42.3856 48.8762 42.2825 48.1903 42.2825 47.3954V41.4508C42.2825 41.2112 42.1521 41.0534 41.8913 40.9771C41.6305 40.9009 41.2987 40.8628 40.8969 40.8628H40.7337V40.1442H45.3307V40.8628H45.184C45.0316 40.8628 44.8743 40.8683 44.7113 40.8792C44.5483 40.8792 44.3959 40.8901 44.2544 40.9118C44.1134 40.9227 43.9993 40.939 43.9125 40.9608C43.8363 40.9717 43.7984 40.9935 43.7984 41.0261V47.3954ZM62.2413 43.2733L64.5625 42.8814L68.4225 49.9104C68.5439 50.137 68.6833 50.3024 68.8398 50.4069C69.0134 50.5114 69.222 50.5812 69.4657 50.6159C69.709 50.6506 69.9784 50.6682 70.2742 50.6682H70.4568V51.7395H66.5968L62.2413 43.2733ZM59.0073 50.4069C59.0073 50.4591 59.068 50.5028 59.1899 50.5375C59.3113 50.5551 59.4678 50.5812 59.6593 50.6159C59.868 50.6335 60.0937 50.6506 60.3374 50.6682C60.5807 50.6682 60.8154 50.6682 61.0416 50.6682H61.3806V51.7395H54.1823V50.6682H54.417C55.0255 50.6682 55.5385 50.6073 55.9558 50.4853C56.3731 50.3632 56.5818 50.1109 56.5818 49.7275V35.1991C56.5818 34.8159 56.3731 34.5633 55.9558 34.4413C55.5385 34.3194 55.0255 34.2584 54.417 34.2584H54.1823V33.1871H61.6415C63.0498 33.1871 64.2495 33.4136 65.2406 33.8665C66.2488 34.302 67.0227 34.9117 67.5618 35.6956C68.1006 36.4795 68.3703 37.394 68.3703 38.4393C68.3703 39.3277 68.1702 40.1203 67.7705 40.8171C67.3878 41.4965 66.8316 42.0713 66.1013 42.5417C65.371 42.9945 64.4928 43.317 63.4671 43.5085C63.2756 43.5432 63.0669 43.5783 62.8412 43.613C62.6325 43.6306 62.4064 43.6477 62.1631 43.6653C61.9369 43.6828 61.7107 43.6914 61.485 43.6914H58.4857V42.4372H61.485C62.4932 42.4372 63.3106 42.2804 63.9366 41.9668C64.5625 41.6533 65.023 41.2004 65.3189 40.6081C65.6318 39.9984 65.7883 39.2754 65.7883 38.4393C65.7883 37.6379 65.6318 36.9411 65.3189 36.3488C65.0059 35.7565 64.5364 35.3036 63.9105 34.9901C63.3017 34.6591 62.5282 34.4936 61.5893 34.4936H59.0073V50.4069Z" fill="#FDFF89"/>
<path d="M77.7336 49.7279V34.4679H76.1687C75.4209 34.4679 74.8125 34.5027 74.3431 34.5724C73.8736 34.6247 73.5256 34.7466 73.2998 34.9382C73.0736 35.1124 72.9347 35.365 72.8825 35.696L72.5696 38.2045H71.3438V33.1875H86.5228V38.2045H85.297L84.9841 35.696C84.949 35.365 84.8101 35.1124 84.5668 34.9382C84.3406 34.7466 83.993 34.6247 83.5235 34.5724C83.0541 34.5027 82.4453 34.4679 81.6979 34.4679H80.1591V49.7279C80.1591 50.1113 80.3677 50.3636 80.785 50.4857C81.2023 50.6078 81.715 50.6686 82.3238 50.6686H82.7411V51.7399H75.1255V50.6686H75.5428C76.1687 50.6686 76.6903 50.6078 77.1076 50.4857C77.5249 50.3636 77.7336 50.1113 77.7336 49.7279ZM96.8912 48.2287V51.7399H88.1867V51.0213H88.3497C88.7409 51.0213 89.067 50.9834 89.3278 50.907C89.5886 50.8307 89.719 50.6731 89.719 50.4334V41.4512C89.719 41.2116 89.5886 41.0538 89.3278 40.9776C89.067 40.9013 88.7409 40.8632 88.3497 40.8632H88.1867V40.1447H96.4185V43.2476H95.5709L95.4079 41.7778C95.3753 41.5818 95.2881 41.4295 95.1471 41.3205C95.0057 41.2116 94.7885 41.1409 94.495 41.1082C94.2016 41.0646 93.821 41.0429 93.354 41.0429H91.2186V50.8417H93.8104C94.158 50.8417 94.4567 50.8307 94.707 50.809C94.9678 50.7874 95.1797 50.749 95.3427 50.6947C95.5057 50.6404 95.6251 50.5641 95.7013 50.4661C95.7881 50.3681 95.837 50.2428 95.848 50.0905L96.0273 48.2287H96.8912ZM90.7785 45.4034C91.2675 45.3817 91.7345 45.3654 92.1804 45.3544C92.6368 45.3433 93.0822 45.327 93.517 45.3054C93.9624 45.2837 94.4025 45.2617 94.8374 45.24V46.3832C94.4025 46.3506 93.9624 46.3232 93.517 46.3016C93.0822 46.2799 92.6368 46.2636 92.1804 46.2526C91.7345 46.231 91.2675 46.2146 90.7785 46.2036V45.4034ZM98.9378 34.2588V33.1875H105.875V34.2588H105.432C105.136 34.2588 104.824 34.2675 104.493 34.285C104.18 34.3024 103.911 34.3372 103.684 34.3895C103.476 34.4243 103.372 34.4766 103.372 34.5463L108.014 41.523L108.144 41.6014L113.752 49.8063C114.013 50.1897 114.291 50.4334 114.586 50.5379C114.882 50.6249 115.273 50.6686 115.76 50.6686H115.995V51.7399H108.901V50.6686H109.344C109.64 50.6686 109.944 50.66 110.257 50.6425C110.587 50.6249 110.866 50.5902 111.091 50.5379C111.318 50.4857 111.431 50.4334 111.431 50.3812L106.371 42.9341L106.24 42.8557L101.05 35.095C100.894 34.8337 100.72 34.6421 100.529 34.5201C100.338 34.3982 100.12 34.3285 99.8767 34.3111C99.6509 34.2763 99.3811 34.2588 99.0682 34.2588H98.9378ZM98.4683 51.7399V50.6686H98.703C99.2247 50.6686 99.6509 50.5726 99.981 50.3812C100.329 50.1721 100.685 49.8063 101.05 49.2837L106.293 41.8366L107.179 42.8295L102.094 50.146C102.094 50.2505 102.189 50.3465 102.38 50.4334C102.572 50.5032 102.833 50.5641 103.163 50.6163C103.493 50.651 103.841 50.6686 104.206 50.6686H104.649V51.7399H98.4683ZM108.04 42.4376L107.127 41.4969L111.717 34.7814C111.717 34.6769 111.622 34.5898 111.431 34.5201C111.257 34.4331 111.013 34.3721 110.7 34.3372C110.387 34.285 110.031 34.2588 109.631 34.2588H109.214V33.1875H115.343V34.2588H115.16C114.656 34.2588 114.23 34.3459 113.882 34.5201C113.552 34.6769 113.213 34.9992 112.865 35.487L108.04 42.4376Z" fill="#92F5A2"/>
</g>
<defs>
<clipPath id="clip0_494_82">
<rect width="141" height="69" fill="white" transform="translate(0 0.5)"/>
</clipPath>
</defs>
</svg>
